# xmcd CD database file
#
# Track frame offsets:
#	150
#	25393
#	54720
#	93262
#	125662
#	157013
#	210004
#	248482
#
# Disc length: 3697 seconds
#
# Revision: 0
# Processed by: cddbd v1.5.2PL0 Copyright (c) Steve Scherf et al.
# Submitted via: CDex 1.77
#
DISCID=610e6f08
DTITLE=Raphael and Shakya - Whispering Heart
DYEAR=2011
DGENRE=New Age
TTITLE0=Delightful Dew
TTITLE1=Eternal Kiss
TTITLE2=The Tender Mouth
TTITLE3=Invisible Joy
TTITLE4=Distant Clouds
TTITLE5=Tonight
TTITLE6=Fariy Magic
TTITLE7=Silent Gratitude
EXTD=YEAR: 2011
EXTT0=
EXTT1=
EXTT2=
EXTT3=
EXTT4=
EXTT5=
EXTT6=
EXTT7=
PLAYORDER=
